<?xml version="1.0" encoding="utf-8"?>
<!DOCTYPE svg PUBLIC "-//W3C//DTD SVG 20010904//EN" "http://www.w3.org/TR/2001/REC-SVG-20010904/DTD/svg10.dtd">
<svg version="1.0" xmlns="http://www.w3.org/2000/svg" width="200px" height="200px" viewBox="0 0 200 200" preserveAspectRatio="xMidYMid meet">
 <g fill="transparent">
  <path d="M0 100 l0 -100 100 0 100 0 0 100 0 100 -100 0 -100 0 0 -100z"/>
 </g>
 <g fill="#89fba3">
  <path d="M47 176.9 c-7.9 -5.9 -14.6 -12.5 -19.5 -19.4 -37.4 -52.3 -11.7 -124 50.6 -140.7 11.9 -3.2 31.8 -3.1 43.9 0.1 46.4 12.4 74.9 56.7 66.5 103.4 -4 22.6 -18.3 45 -37 57.7 -4.3 2.9 -3.9 2.4 3.2 -4.4 17.7 -16.7 26.3 -36.6 26.3 -60.9 0 -29.5 -17.7 -57.8 -44.7 -71.5 -13.8 -7.1 -36.9 -10 -51.9 -6.7 -17 3.7 -27.7 9.3 -39.8 20.6 -34.7 32.4 -34 86.4 1.5 119.3 3.9 3.6 7 6.6 6.8 6.6 -0.2 0 -2.9 -1.9 -5.9 -4.1z"/>
  <path d="M57.5 160.1 c-6.2 -1.5 -14.8 -7.1 -13.3 -8.6 0.3 -0.3 3.2 0.9 6.6 2.6 8.8 4.6 18.1 5.1 25.4 1.6 6.4 -3.2 9.5 -7.4 10.4 -14.3 1.6 -12.6 -6.2 -21.4 -18.9 -21.4 -2.9 0 -5.8 -0.5 -6.5 -1.2 -2 -2 -1.5 -7.6 0.7 -8.8 2.7 -1.4 10.4 -1.3 13.8 0.2 2.6 1.2 2.2 1.3 -5.2 1.8 -7.2 0.4 -8 0.7 -8 2.5 0 1.8 0.9 2.1 7.3 2.7 11.5 1 18.3 7.2 19.6 18.1 1.4 10.9 -5.4 21.9 -15 24.6 -4.3 1.2 -12.3 1.3 -16.9 0.2z"/>
  <path d="M53.2 152.5 c-3 -1.4 -5.2 -3 -5 -3.6 0.5 -1.4 0.5 -1.4 6.2 1.2 3.3 1.4 7 2.2 11.1 2.2 10.7 0 15.9 -4.5 15.9 -13.7 0.1 -9.2 -5.1 -13.5 -16.4 -13.6 -5.8 -0.1 -8.9 -2.4 -10.1 -7.9 -1.1 -5 0.1 -8.3 4.4 -11.5 3.6 -2.6 13.2 -2.7 19.1 -0.2 5.9 2.5 3.2 3.7 -4.1 1.9 -6.6 -1.7 -11.5 -1.2 -14.8 1.3 -1.5 1.1 -2 2.7 -2 6 0 5.8 1.5 6.9 10 7.7 11.7 1.1 16.5 5.8 16.5 16.1 0 6.9 -1.8 10.7 -6.7 14.1 -5.3 3.6 -16.4 3.6 -24.1 0z"/>
  <path d="M57.4 149 c-3.5 -1.1 -6 -3.5 -4.6 -4.4 0.6 -0.3 2.6 0.1 4.6 0.9 9.4 3.9 19 0.5 19 -6.8 0 -5.5 -2.6 -7.7 -9 -7.7 -10 0 -15.6 -4 -17.5 -12.6 -1 -4.6 -1 -6 0.5 -9.9 2.6 -6.6 7.2 -9.8 15.1 -10.3 9.1 -0.6 21.9 3.7 20.1 6.7 -0.4 0.7 -2.2 0.2 -4.9 -1.2 -5.9 -3.1 -19.2 -3.2 -23.4 -0.1 -6.1 4.5 -6.8 14.6 -1.4 20.6 2.5 2.8 3.5 3.2 10.5 3.7 6.9 0.6 8.1 1 10.2 3.4 3.5 4.1 3.3 10.6 -0.5 14.9 -2.6 2.9 -3.5 3.2 -9.2 3.5 -3.5 0.1 -7.8 -0.2 -9.5 -0.7z"/>
  <path d="M57.3 143.3 c-0.7 -0.2 -1.3 -0.9 -1.3 -1.5 0 -0.7 1.8 -0.9 5.3 -0.5 7 0.9 9.9 0 9.5 -2.7 -0.3 -1.8 -1.1 -2.2 -6.8 -2.6 -10.2 -0.8 -16.4 -5.7 -19 -14.9 -3.1 -11.4 2.7 -23.7 12.9 -27.3 4.8 -1.7 16.6 -1.4 21.9 0.6 6 2.2 10.6 5.6 9.4 6.8 -0.7 0.7 -2 0.3 -4 -1.1 -3.3 -2.3 -12.9 -5.1 -17.7 -5.1 -13.1 0 -21.5 8.9 -20.2 21.4 1.1 10.8 5.8 15.5 16.7 16.5 7.4 0.7 10 2.2 10 5.7 0 4 -2.5 5.4 -9.3 5.3 -3.4 0 -6.8 -0.3 -7.4 -0.6z"/>
  <path d="M78 80 l0 -8 13.5 0 13.5 0 0 8 0 8 -13.5 0 -13.5 0 0 -8z"/>
  <path d="M107.6 84.3 c-0.3 -2.1 -0.6 -6 -0.6 -8.6 0 -4.1 0.3 -5 2.1 -5.4 l2.2 -0.6 -2.3 -1.7 c-1.9 -1.5 -2.1 -2 -1.1 -4.1 1.1 -2.3 1.1 -2.3 -0.3 -0.5 -0.9 1.1 -1.6 2.3 -1.6 2.8 0 0.4 -2.7 0.8 -6 0.8 -5.7 0 -6 -0.1 -6 -2.5 0 -2.3 0.4 -2.5 4 -2.5 3.8 0 4.2 -0.3 6.2 -4.4 l2.1 -4.4 7.3 4.9 c4 2.7 7.6 4.9 7.9 4.9 0.3 0 0.5 -1.1 0.5 -2.4 0 -1.3 0.7 -2.9 1.5 -3.6 1.3 -1.1 1.5 -0.1 1.5 8.4 0 7.9 -0.3 9.6 -1.5 9.6 -1.1 0 -1.5 1.2 -1.5 5 0 3.8 0.4 5 1.5 5 0.8 0 1.5 0.7 1.5 1.5 0 1.1 -1.2 1.5 -4.5 1.5 -3.3 0 -4.5 -0.4 -4.5 -1.5 0 -0.8 0.7 -1.5 1.5 -1.5 1.1 0 1.5 -1.2 1.5 -5 0 -4.3 -0.3 -5 -2 -5 -1.8 0 -2 0.7 -2 6.5 l0 6.5 -3.4 0 c-3.1 0 -3.4 -0.3 -4 -3.7z"/>
  <path d="M79 69.5 c0 -1.3 2.2 -1.5 14 -1.5 11.8 0 14 0.2 14 1.5 0 1.3 -2.2 1.5 -14 1.5 -11.8 0 -14 -0.2 -14 -1.5z"/>
  <path d="M78 54.9 c0 -10.9 0.2 -12 1.8 -11.7 1.5 0.3 1.7 1.8 2 12.1 0.3 11.2 0.2 11.7 -1.8 11.7 -1.9 0 -2 -0.6 -2 -12.1z"/>
 </g>
 <g fill="#77f4af">
  <path d="M47 176.9 c-7.9 -5.9 -14.6 -12.5 -19.5 -19.4 -37.4 -52.3 -11.7 -124 50.6 -140.7 11.9 -3.1 31.7 -3.1 43.9 0.1 11.8 3.1 25.1 9.8 34.5 17.5 8.3 6.7 15.4 14.6 12.1 13.3 -1.7 -0.7 -1.8 0 -1.5 10.1 l0.4 10.8 -3.7 -4.8 c-15.2 -19.2 -35.2 -29.3 -60.4 -30.5 -22.7 -1.1 -41.9 6 -58.8 21.8 -34.7 32.4 -34 86.4 1.5 119.3 3.9 3.6 7 6.6 6.8 6.6 -0.2 0 -2.9 -1.9 -5.9 -4.1z"/>
  <path d="M154.6 173.8 c4.4 -4.3 9.2 -9.3 10.5 -11.2 2.3 -3.5 4.9 -4.8 4.9 -2.5 0 1.8 -10.8 12.5 -17.3 17 l-6.2 4.3 8.1 -7.6z"/>
  <path d="M57.5 160.1 c-1.8 -0.4 -3.1 -1.4 -3.3 -2.5 -0.3 -1.5 0 -1.7 1.4 -1.1 1.1 0.4 4.9 1 8.6 1.2 5.9 0.5 7.4 0.2 12 -2 6.4 -3.2 9.5 -7.4 10.4 -14.3 1.6 -12.6 -6.2 -21.4 -18.9 -21.4 -2.9 0 -5.8 -0.5 -6.5 -1.2 -2 -2 -1.5 -7.6 0.7 -8.8 2.7 -1.4 10.4 -1.3 13.8 0.2 2.6 1.2 2.2 1.3 -5.2 1.8 -7.2 0.4 -8 0.7 -8 2.5 0 1.8 0.9 2.1 7.3 2.7 11.5 1 18.3 7.2 19.6 18.1 1.4 10.9 -5.4 21.9 -15 24.6 -4.2 1.2 -12 1.3 -16.9 0.2z"/>
  <path d="M56.3 154 c-4.2 -1.7 -2.6 -3.2 2.5 -2.3 14.6 2.4 22.5 -2.1 22.6 -13.1 0.1 -9.2 -5.1 -13.5 -16.4 -13.6 -5.8 -0.1 -8.9 -2.4 -10.1 -7.9 -1.1 -5 0.1 -8.3 4.4 -11.5 3.6 -2.6 13.2 -2.7 19.1 -0.2 5.9 2.5 3.2 3.7 -4.1 1.9 -6.6 -1.7 -11.5 -1.2 -14.8 1.3 -1.5 1.1 -2 2.7 -2 6 0 5.8 1.5 6.9 10 7.7 11.7 1.1 16.5 5.8 16.5 16.1 0 6.9 -1.8 10.7 -6.7 14.1 -3.2 2.1 -4.8 2.5 -11.3 2.4 -4.1 0 -8.5 -0.4 -9.7 -0.9z"/>
  <path d="M57.3 148.9 c-1.9 -0.5 -3.3 -1.6 -3.3 -2.5 0 -1.2 0.6 -1.5 2.3 -0.9 1.2 0.4 4.9 0.9 8.3 1.2 5.4 0.5 6.4 0.2 8.9 -2 2.2 -1.8 2.9 -3.3 2.9 -6 0 -5.5 -2.6 -7.7 -9.1 -7.7 -5.5 0 -11.5 -1.9 -12.8 -4 -1.3 -2 0.3 -2.3 3.9 -0.6 1.9 0.9 5.9 1.6 9.1 1.6 4.9 0 6 0.4 8.6 2.9 4.1 4.1 4.1 10.7 0 15.3 -2.6 2.9 -3.5 3.2 -9.2 3.5 -3.5 0.1 -7.9 -0.2 -9.6 -0.8z"/>
  <path d="M57.3 143.3 c-0.7 -0.2 -1.3 -0.9 -1.3 -1.5 0 -0.7 1.8 -0.9 5.3 -0.5 7 0.9 9.9 0 9.5 -2.7 -0.3 -1.8 -1.2 -2.2 -6.8 -2.7 -6.8 -0.6 -10 -1.5 -10 -3 0 -1.3 15.2 0.1 17.8 1.7 2.6 1.7 2.9 5.5 0.6 7.8 -1.1 1.1 -3.4 1.6 -7.7 1.5 -3.4 0 -6.8 -0.3 -7.4 -0.6z"/>
  <path d="M80.7 103.7 c-5.2 -2.7 -16 -3.4 -20.8 -1.4 -4.8 2 -7 0.7 -3.2 -1.9 5.7 -3.7 21.7 -2.5 27.7 2.1 3.3 2.5 0.5 3.5 -3.7 1.2z"/>
  <path d="M84.9 100 c-2.9 -2.2 -12.7 -5 -17.4 -5 -1.6 0 -4.7 0.5 -6.8 1.1 -2.3 0.6 -4.3 0.6 -5.4 0.1 -1.3 -0.8 -0.9 -1.2 2.3 -2.3 5.1 -1.8 16.8 -1.5 22.2 0.5 5.4 1.9 10.4 5.4 9.7 6.7 -0.9 1.3 -1.6 1.1 -4.6 -1.1z"/>
 </g>
 <g fill="#a8c7ab">
  <path d="M107.6 84.3 c-0.3 -2.1 -0.6 -6 -0.6 -8.6 0 -4.1 0.3 -5 2.1 -5.4 l2.2 -0.6 -2.3 -1.7 c-1.9 -1.5 -2.1 -2 -1.1 -4.1 1.1 -2.3 1.1 -2.3 -0.3 -0.5 -0.9 1.1 -1.6 2.3 -1.6 2.8 0 0.4 -2.2 0.8 -5 0.8 -4.7 0 -5 -0.2 -5 -2.5 0 -2.1 0.5 -2.5 3 -2.5 2.6 0 3.3 -0.6 5.2 -4.4 l2.1 -4.4 7.3 4.9 c4 2.7 7.6 4.9 7.9 4.9 0.3 0 0.5 -1.1 0.5 -2.4 0 -1.3 0.7 -2.9 1.5 -3.6 1.3 -1.1 1.5 -0.1 1.5 8.4 0 7.9 -0.3 9.6 -1.5 9.6 -1.1 0 -1.5 1.2 -1.5 5 0 3.8 0.4 5 1.5 5 0.8 0 1.5 0.7 1.5 1.5 0 1.1 -1.2 1.5 -4.5 1.5 -3.3 0 -4.5 -0.4 -4.5 -1.5 0 -0.8 0.7 -1.5 1.5 -1.5 1.1 0 1.5 -1.2 1.5 -5 0 -4.3 -0.3 -5 -2 -5 -1.8 0 -2 0.7 -2 6.5 l0 6.5 -3.4 0 c-3.1 0 -3.4 -0.3 -4 -3.7z"/>
  <path d="M78.2 54.9 c-0.3 -11.1 -0.2 -12 1.5 -11.7 1.6 0.3 1.8 1.7 2.1 12.1 0.2 10.7 0.1 11.7 -1.5 11.7 -1.6 0 -1.8 -1.3 -2.1 -12.1z"/>
 </g>
 <g fill="#41d7fd">
  <path d="M47 176.9 c-7.9 -5.9 -14.6 -12.5 -19.5 -19.4 -37.4 -52.3 -11.7 -124 50.6 -140.7 11.9 -3.1 31.8 -3.1 43.7 0.1 12.7 3.3 26.7 10.1 21.1 10.1 -0.8 0 -1 2.7 -0.7 8.8 l0.4 8.8 -5.1 -2.7 c-13.9 -7.6 -37.5 -10.9 -53.1 -7.4 -17 3.7 -27.7 9.3 -39.8 20.6 -34.7 32.4 -34 86.4 1.5 119.3 3.9 3.6 7 6.6 6.8 6.6 -0.2 0 -2.9 -1.9 -5.9 -4.1z"/>
  <path d="M132 127.4 c-9.6 -16.7 -17.6 -30.9 -17.8 -31.4 -0.2 -0.6 0.3 -1 1 -1 0.8 0 3.6 3.9 6.4 8.8 2.8 4.8 10.2 17.6 16.5 28.6 l11.4 19.8 0.3 -28.6 c0.2 -24.5 0.4 -28.6 1.7 -28.6 1.3 0 1.5 4.3 1.5 31.5 0 29.3 -0.1 31.5 -1.7 31.5 -1.3 -0.1 -7 -9.1 -19.3 -30.6z"/>
  <path d="M146 143.1 c-0.6 -1.2 -1 -11 -1 -25 0 -19.9 0.2 -23.1 1.5 -23.1 1.3 0 1.5 3.4 1.5 25 0 13.8 -0.2 25 -0.5 25 -0.2 0 -0.9 -0.9 -1.5 -1.9z"/>
 </g>
 <g fill="#65edbf">
  <path d="M47 176.9 c-7.9 -5.9 -14.6 -12.5 -19.5 -19.4 -37.4 -52.3 -11.7 -124 50.6 -140.7 11.9 -3.1 31.8 -3.1 43.7 0.1 12.7 3.3 26.7 10.1 21.1 10.1 -0.8 0 -1 2.7 -0.7 8.8 l0.4 8.8 -5.1 -2.7 c-13.9 -7.6 -37.5 -10.9 -53.1 -7.4 -17 3.7 -27.7 9.3 -39.8 20.6 -7.8 7.3 -15.1 17.2 -18.5 25.2 -1.3 3.1 -2.6 4.7 -3.8 4.7 -1.5 0 -1.6 0.2 -0.3 1 1.3 0.8 1.2 1 -0.2 1 -2 0 -2.5 1.6 -0.7 2.2 0.7 0.2 0.6 2.9 -0.5 8.7 -0.9 4.6 -1.6 12.3 -1.6 17.1 0 6.1 -0.4 9 -1.2 9.3 -0.9 0.4 -0.8 0.6 0.3 0.6 1.1 0.1 2 2.2 3.2 7.9 3.2 14.9 12.2 29.9 24.8 41.6 3.9 3.6 7 6.6 6.8 6.6 -0.2 0 -2.9 -1.9 -5.9 -4.1z"/>
  <path d="M68 159.5 c0 -0.8 0.8 -1.5 1.8 -1.5 3.4 0 11.7 -4.9 13.9 -8.2 2.9 -4.4 3.9 -11.7 2.3 -17.3 -1.6 -5.8 -7.4 -11.2 -13 -12.1 -5.1 -0.8 -4.7 -3 0.5 -2.7 15.9 1 21.8 25.4 9.1 37.1 -5.6 5.1 -14.6 8 -14.6 4.7z"/>
  <path d="M69.2 153.5 c-1.1 -1.3 -0.9 -1.5 1.1 -1.5 4 0 9.1 -4.1 10.5 -8.5 2.5 -7.4 -0.9 -15.7 -7 -17.3 -3.7 -0.9 -5 -3.2 -1.8 -3.2 6.7 0 12 6.7 12 15.4 0 6.9 -1.8 10.7 -6.7 14.1 -4.3 2.8 -6.2 3.1 -8.1 1z"/>
  <path d="M68 149.1 c0 -0.6 0.5 -1.1 1.1 -1.1 0.5 0 2.4 -1.3 4.2 -2.9 2.3 -2.3 3.1 -3.8 3.1 -6.5 0 -4.2 -2.7 -7.6 -6.1 -7.6 -2.8 0 -3.1 -1.6 -0.3 -2.5 4.4 -1.4 9 3.8 9 10.2 0 3.3 -0.6 5 -2.7 7.2 -2.9 3.1 -8.3 5.2 -8.3 3.2z"/>
  <path d="M70.9 142.8 c-1.3 -6.9 0 -10.5 2.4 -6.6 1.1 1.7 0.1 6.8 -1.3 6.8 -0.6 0 -1 -0.1 -1.1 -0.2z"/>
  <path d="M66 111.1 c0 -1.5 3.9 -2.3 7.6 -1.7 5.8 1.1 4.9 2.6 -1.5 2.6 -3.4 0 -6.1 -0.4 -6.1 -0.9z"/>
  <path d="M75.2 107.6 c-2.4 -0.7 -4.8 -2 -5.3 -2.9 -0.9 -1.5 -0.6 -1.6 2.3 -1 5.2 0.9 10 3.2 9.3 4.3 -0.7 1.1 -0.5 1.1 -6.3 -0.4z"/>
  <path d="M80.8 103.8 c-2 -1.1 -6.2 -2.2 -9.2 -2.5 -6.2 -0.6 -7.2 -1.8 -2.6 -2.8 5.3 -1.2 18.9 4.1 16.4 6.4 -0.5 0.5 -2.4 0.1 -4.6 -1.1z"/>
  <path d="M85 100.1 c-2.4 -1.7 -6.4 -3.2 -12.1 -4.5 -1.5 -0.3 -2.9 -1.2 -3.2 -2.1 -0.5 -1.1 0 -1.3 2.6 -0.9 8.5 1.5 18.4 6.4 17.2 8.4 -0.8 1.4 -1.6 1.2 -4.5 -0.9z"/>
 </g>
 <g fill="#4fe6ca">
  <path d="M47 176.9 c-7.9 -5.9 -14.6 -12.5 -19.5 -19.4 -37.4 -52.3 -11.6 -124 50.6 -140.6 6.6 -1.8 11.2 -2.3 21.4 -2.3 7.2 -0.1 14.2 0.3 15.8 0.7 2.7 0.7 2.7 0.9 2.7 8.6 0 5.8 0.4 8.2 1.5 9.1 0.8 0.7 1.5 1.8 1.5 2.4 0 0.6 -0.7 0.3 -1.4 -0.7 -0.8 -1 -1.6 -1.4 -1.7 -0.8 -0.3 0.6 -2.1 0.6 -4.9 0.1 -12.6 -2.5 -31 -0.3 -44.8 5.3 -17 7 -35 24.5 -42.1 41 -1.3 3.1 -2.6 4.7 -3.8 4.7 -1.5 0 -1.6 0.2 -0.3 1 1.3 0.8 1.2 1 -0.2 1 -2 0 -2.5 1.6 -0.7 2.2 0.7 0.2 0.6 2.9 -0.5 8.7 -0.9 4.6 -1.6 12.3 -1.6 17.1 0 6.1 -0.4 9 -1.2 9.3 -0.9 0.4 -0.8 0.6 0.3 0.6 1.1 0.1 2 2.2 3.2 7.9 3.2 14.9 12.2 29.9 24.8 41.6 3.9 3.6 7 6.6 6.8 6.6 -0.2 0 -2.9 -1.9 -5.9 -4.1z"/>
  <path d="M95 126.5 c0 -29.3 0.1 -31.5 1.8 -31.5 1.2 0 7 9.3 19.9 31.5 13 22.6 17.6 31.5 16.5 31.5 -1.1 0 -3.8 -3.6 -7.3 -9.8 -3.1 -5.3 -10.5 -18.2 -16.5 -28.7 l-10.9 -18.9 -0.3 28.7 c-0.2 24.6 -0.4 28.7 -1.7 28.7 -1.3 0 -1.5 -4.3 -1.5 -31.5z"/>
  <path d="M100 132.8 c0.1 -22.5 0.2 -25.1 1.5 -23.4 2.2 3 2.2 48.6 0 48.6 -1.3 0 -1.5 -3.5 -1.5 -25.2z"/>
  <path d="M86.4 148.3 c-0.8 -0.3 -0.8 -1.8 -0.1 -5.5 0.7 -3.7 0.7 -6.4 -0.3 -10 -0.6 -2.7 -0.9 -5.2 -0.6 -5.5 1.2 -1.2 2.6 1.3 3.7 6.8 0.9 4.4 0.8 6.5 -0.2 10.1 -0.8 2.5 -1.9 4.3 -2.5 4.1z"/>
  <path d="M86 100.5 c-0.7 -0.8 -1 -1.9 -0.6 -2.2 0.9 -0.9 3.8 0.8 3.8 2.2 -0.1 1.6 -1.8 1.6 -3.2 0z"/>
 </g>
 <g fill="#37ddda">
  <path d="M47 176.9 c-34.8 -26 -46.6 -71.5 -28.6 -110.5 12.7 -27.3 39.1 -47.2 68.3 -51.2 l5.8 -0.8 -0.3 9.2 -0.3 9.2 -7.7 1.7 c-16.8 3.7 -27.5 9.3 -39.6 20.6 -7.8 7.3 -15.1 17.2 -18.5 25.2 -1.3 3.1 -2.6 4.7 -3.8 4.7 -1.5 0 -1.6 0.2 -0.3 1 1.3 0.8 1.2 1 -0.2 1 -2 0 -2.5 1.6 -0.7 2.2 0.7 0.2 0.6 2.9 -0.5 8.7 -0.9 4.6 -1.6 12.3 -1.6 17.1 0 6.1 -0.4 9 -1.2 9.3 -0.9 0.4 -0.8 0.6 0.3 0.6 1.1 0.1 2 2.2 3.2 7.9 3.2 14.9 12.2 29.9 24.8 41.6 3.9 3.6 7 6.6 6.8 6.6 -0.2 0 -2.9 -1.9 -5.9 -4.1z"/>
  <path d="M100 135 c0 -19.8 0.2 -23 1.5 -23 1.3 0 1.5 3.2 1.5 23 0 19.8 -0.2 23 -1.5 23 -1.3 0 -1.5 -3.2 -1.5 -23z"/>
  <path d="M106 137.8 c0 -13.5 0.4 -19.8 1 -18.8 1.3 2 1.3 39 0 39 -0.6 0 -1 -7.4 -1 -20.2z"/>
  <path d="M111 141.8 c0 -10.9 0.4 -15.8 1 -14.8 1.3 2 1.3 31 0 31 -0.6 0 -1 -6.1 -1 -16.2z"/>
  <path d="M125.9 148.2 c-3 -5.3 -9.9 -17.2 -15.2 -26.4 -5.3 -9.2 -9.7 -17 -9.7 -17.3 0 -0.3 0.6 -0.5 1.3 -0.5 0.7 0 8.3 12.2 16.9 27 11.3 19.5 15.2 27 14 27 -1.1 0 -3.8 -3.6 -7.3 -9.8z"/>
  <path d="M119.8 127.1 c-9.8 -16.9 -17.8 -31.1 -17.8 -31.4 0 -0.4 0.6 -0.7 1.3 -0.7 0.6 0 4 4.9 7.3 10.8 3.4 5.9 11.6 20 18.2 31.5 8.8 15.1 11.6 20.7 10.4 20.7 -1.2 -0.1 -7.5 -10.1 -19.4 -30.9z"/>
  <path d="M135 143.2 c-4.6 -8.1 -12.6 -22 -17.7 -30.9 -5.1 -8.9 -9.3 -16.5 -9.3 -16.8 0 -0.3 0.6 -0.5 1.3 -0.5 1.1 0 8.9 13 31.9 53.1 4.4 7.7 5.3 9.9 4 9.9 -1.1 0 -4.6 -5 -10.2 -14.8z"/>
  <path d="M147.4 153.8 c-1 -2.4 -2.1 -4.5 -2.5 -4.8 -0.8 -0.6 -30.9 -52.7 -30.9 -53.4 0 -0.3 0.6 -0.6 1.3 -0.6 0.7 0 3.5 3.9 6.3 8.8 2.8 4.8 10.2 17.6 16.5 28.6 l11.4 19.8 0.3 -28.6 c0.2 -24.5 0.4 -28.6 1.7 -28.6 1.3 0 1.5 4.3 1.5 31.5 0 30 -0.1 31.5 -1.8 31.5 -1.3 0 -2.5 -1.5 -3.8 -4.2z"/>
 </g>
 <g fill="#23d6e8">
  <path d="M47 176.9 c-7.9 -5.9 -14.6 -12.5 -19.5 -19.4 -29.3 -40.9 -20.7 -96.4 19.5 -125.9 6.2 -4.6 15.9 -10.1 16.5 -9.4 0.2 0.2 0.5 4.4 0.6 9.4 l0.4 9.1 -6.1 3.6 c-12.6 7.4 -26.9 23.4 -32.3 36 -1.3 3.1 -2.6 4.7 -3.8 4.7 -1.5 0 -1.6 0.2 -0.3 1 1.3 0.8 1.2 1 -0.2 1 -2 0 -2.5 1.6 -0.7 2.2 0.7 0.2 0.6 2.9 -0.5 8.7 -0.9 4.6 -1.6 12.3 -1.6 17.1 0 6.1 -0.4 9 -1.2 9.3 -0.9 0.4 -0.8 0.6 0.3 0.6 1.1 0.1 2 2.2 3.2 7.9 3.2 14.9 12.2 29.9 24.8 41.6 3.9 3.6 7 6.6 6.8 6.6 -0.2 0 -2.9 -1.9 -5.9 -4.1z"/>
  <path d="M124.8 146.1 c-3.8 -6.5 -6.8 -12.1 -6.8 -12.5 0 -0.3 0.6 -0.6 1.3 -0.6 0.6 0 4.4 5.7 8.4 12.5 5.3 9.4 6.7 12.5 5.5 12.5 -1.1 0 -4.1 -4.2 -8.4 -11.9z"/>
  <path d="M128 141.4 c-10.9 -19 -10.6 -18.4 -8.8 -18.4 0.8 0 6 7.9 11.5 17.5 7.4 12.8 9.7 17.5 8.5 17.5 -1.1 -0.1 -5 -5.8 -11.2 -16.6z"/>
  <path d="M130.8 135.7 c-7.1 -12.2 -12.8 -22.6 -12.8 -23 0 -0.4 0.6 -0.7 1.3 -0.7 0.6 0 4.5 5.7 8.5 12.8 4 7 9.9 17.3 13.2 23 4.5 7.9 5.5 10.2 4.2 10.2 -1.2 0 -5.8 -7.2 -14.4 -22.3z"/>
  <path d="M147.4 153.8 c-1 -2.4 -2.1 -4.5 -2.5 -4.8 -1.1 -0.8 -25.9 -44.1 -25.9 -45.2 0 -0.5 0.6 -0.8 1.2 -0.6 1.4 0.5 2.8 2.8 19 31.2 l10.3 17.9 0.3 -28.7 c0.2 -24.5 0.4 -28.6 1.7 -28.6 1.3 0 1.5 4.3 1.5 31.5 0 30 -0.1 31.5 -1.8 31.5 -1.3 0 -2.5 -1.5 -3.8 -4.2z"/>
  <path d="M135.7 125.3 c-1.1 -1.1 -0.8 -30.3 0.3 -30.3 0.6 0 1 5.8 1 15.5 0 8.5 -0.1 15.5 -0.3 15.5 -0.2 0 -0.7 -0.3 -1 -0.7z"/>
 </g>
 <g fill="#13d0f2">
  <path d="M33.3 164.7 c-19.8 -21.5 -28.1 -55.7 -20.3 -83.6 4.8 -17 15.7 -34.9 26.8 -43.8 l3.7 -3 -0.3 8.6 c-0.3 6.4 -0.8 9.2 -2.3 11.2 -1.3 1.8 -1.5 2.9 -0.8 3.1 0.7 0.2 -1 3.1 -3.9 6.7 -2.8 3.5 -6.7 9.7 -8.7 13.7 -2.4 4.7 -4.3 7.4 -5.3 7.4 -1.5 0 -1.5 0.2 -0.2 1 1.3 0.8 1.2 1 -0.2 1 -2 0 -2.5 1.6 -0.7 2.2 0.7 0.2 0.6 2.9 -0.5 8.7 -0.9 4.6 -1.6 12.3 -1.6 17.1 0 6.1 -0.4 9 -1.2 9.3 -0.9 0.4 -0.8 0.6 0.3 0.6 1.1 0.1 2 2.2 3.2 7.9 2 9.1 7 20.1 13.3 28.8 5.2 7.3 4.4 9.3 -1.3 3.1z"/>
  <path d="M135.6 154.4 c-2.8 -6.1 -0.3 -6 3.3 0.1 1.9 3.2 1.9 3.5 0.3 3.5 -1.1 0 -2.5 -1.5 -3.6 -3.6z"/>
  <path d="M138.8 149.7 c-5.7 -10.1 -7.4 -14 -5.6 -13.5 0.7 0.3 4.1 5.3 7.5 11.1 4.9 8.3 5.9 10.7 4.5 10.7 -1.1 0 -3.4 -3 -6.4 -8.3z"/>
  <path d="M147.4 153.8 c-1 -2.4 -2.1 -4.5 -2.5 -4.8 -1.2 -1 -12.9 -21.6 -12.9 -22.8 0 -3.2 2.5 0 9.7 12.4 l7.8 13.6 0.3 -28.6 c0.2 -24.5 0.4 -28.6 1.7 -28.6 1.3 0 1.5 4.3 1.5 31.5 0 30 -0.1 31.5 -1.8 31.5 -1.3 0 -2.5 -1.5 -3.8 -4.2z"/>
  <path d="M132 148 c0 -0.5 0.7 -1 1.5 -1 0.8 0 1.5 0.5 1.5 1 0 0.6 -0.7 1 -1.5 1 -0.8 0 -1.5 -0.4 -1.5 -1z"/>
  <path d="M141 134.1 c-0.6 -1.2 -1 -9.6 -1 -20.5 0 -15.9 0.2 -18.6 1.5 -18.6 1.3 0 1.5 2.9 1.5 20.5 0 11.3 -0.2 20.5 -0.5 20.5 -0.2 0 -0.9 -0.9 -1.5 -1.9z"/>
  <path d="M135.6 124.4 c-1 -2.7 -0.7 -29.4 0.4 -29.4 0.6 0 1 5.8 1 15.5 0 8.5 -0.2 15.5 -0.4 15.5 -0.2 0 -0.7 -0.7 -1 -1.6z"/>
 </g>
 <g fill="#79d282">
  <path d="M80 80 l0 -8 12.5 0 12.5 0 0 8 0 8 -12.5 0 -12.5 0 0 -8z"/>
  <path d="M107.5 82.8 c-0.4 -2.9 -0.5 -6.9 -0.3 -8.8 0.3 -3.2 0.6 -3.5 3.1 -3.2 3.5 0.4 3.4 -0.4 -0.3 -2.3 -2.6 -1.4 -2.8 -1.8 -1.9 -4.1 1.4 -3.8 0.4 -4.1 -1.1 -0.4 -1.1 2.8 -1.6 3 -6.1 3 -4.6 0 -4.9 -0.2 -4.9 -2.5 0 -2.1 0.5 -2.5 3 -2.5 2.6 0 3.3 -0.6 5.2 -4.4 l2.1 -4.4 7.3 4.9 c4 2.7 7.6 4.9 7.9 4.9 0.3 0 0.5 -1.1 0.5 -2.4 0 -1.3 0.7 -2.9 1.5 -3.6 1.3 -1.1 1.5 -0.1 1.5 8.4 0 7.9 -0.3 9.6 -1.5 9.6 -1.1 0 -1.5 1.2 -1.5 5 0 3.8 0.4 5 1.5 5 0.8 0 1.5 0.7 1.5 1.5 0 1.1 -1.2 1.5 -4.5 1.5 -3.3 0 -4.5 -0.4 -4.5 -1.5 0 -0.8 0.7 -1.5 1.5 -1.5 1.1 0 1.5 -1.2 1.5 -5 0 -4.3 -0.3 -5 -2 -5 -1.8 0 -2 0.7 -2 6.5 l0 6.5 -3.4 0 c-3.4 0 -3.5 -0.1 -4.1 -5.2z"/>
  <path d="M80.2 69.8 c0.3 -0.9 4.2 -1.4 13.6 -1.6 11.3 -0.2 13.2 0 13.2 1.3 0 1.3 -2.1 1.5 -13.6 1.5 -10.4 0 -13.5 -0.3 -13.2 -1.2z"/>
  <path d="M78.2 55.1 c-0.3 -11.6 -0.2 -11.9 1.8 -11.4 1.9 0.5 2 1.3 2 11.9 0 10.2 -0.2 11.4 -1.7 11.4 -1.6 0 -1.8 -1.3 -2.1 -11.9z"/>
  <path d="M86.3 66.3 c0.9 -0.2 2.5 -0.2 3.5 0 0.9 0.3 0.1 0.5 -1.8 0.5 -1.9 0 -2.7 -0.2 -1.7 -0.5z"/>
  <path d="M96.8 55.6 c-2.9 -1.5 -3.6 -6.1 -1.2 -8.7 3.3 -3.7 9.7 -1.5 9.7 3.4 0 4.9 -4.1 7.5 -8.5 5.3z"/>
 </g>
 <g fill="#06cbfb">
  <path d="M147.3 153.5 c-1 -2.5 -2.1 -4.5 -2.5 -4.5 -0.5 0 -0.8 -0.4 -0.8 -1 0 -2 2.6 -0.9 4.2 1.8 1.7 2.6 1.7 1.5 1.8 -26 0 -24.9 0.2 -28.8 1.5 -28.8 1.3 0 1.5 4.2 1.5 31.5 0 30.3 -0.1 31.5 -1.9 31.5 -1.3 0 -2.5 -1.4 -3.8 -4.5z"/>
  <path d="M22.3 148.2 c-1.7 -1.1 -5.8 -9.8 -8.1 -17.3 -4.9 -15.9 -5.3 -35.1 -1.2 -49.8 2.2 -7.9 7.7 -20.3 10.4 -23.6 1.6 -1.9 1.6 -1.3 1.4 9.3 -0.2 6.8 0.1 11.4 0.7 11.6 0.6 0.3 0.2 0.5 -0.7 0.5 -1.9 0.1 -2.6 2.1 -0.8 2.1 1.9 0 1 3.2 -1.1 3.7 -1.6 0.4 -1.7 0.8 -0.7 1.4 1 0.7 0.9 0.9 -0.4 0.9 -2 0 -2.5 1.6 -0.7 2.2 0.7 0.2 0.6 2.9 -0.5 8.7 -0.9 4.6 -1.6 12.3 -1.6 17.1 0 6.1 -0.4 9 -1.2 9.3 -0.9 0.4 -0.8 0.6 0.3 0.6 1.1 0.1 2 2.2 3.1 7.4 0.9 3.9 1.2 7.3 0.7 7.5 -1.4 0.6 -1 2.2 0.5 2.2 0.8 0 1.6 0.7 2 1.5 0.3 0.8 0.1 1.5 -0.5 1.5 -0.6 0 -0.8 0.9 -0.4 2 0.7 2.2 0.6 2.3 -1.2 1.2z"/>
 </g>
 <g fill="#55945b">
  <path d="M85 80 l0 -8 10 0 10 0 0 8 0 8 -10 0 -10 0 0 -8z"/>
  <path d="M107.5 82.8 c-0.4 -2.9 -0.5 -6.9 -0.3 -8.8 0.3 -3.2 0.6 -3.5 3.1 -3.2 3.5 0.4 3.4 -0.4 -0.3 -2.3 -2.6 -1.4 -2.8 -1.8 -1.9 -4.1 1.4 -3.8 0.4 -4.1 -1.1 -0.4 -0.7 1.6 -1.8 3 -2.5 3 -2.4 0 -2.6 -4.7 -0.3 -9.4 l2.1 -4.4 7.3 4.9 c4 2.7 7.6 4.9 7.9 4.9 0.3 0 0.5 -1.1 0.5 -2.4 0 -1.3 0.7 -2.9 1.5 -3.6 1.3 -1.1 1.5 -0.1 1.5 8.4 0 7.9 -0.3 9.6 -1.5 9.6 -1.1 0 -1.5 1.2 -1.5 5 0 3.8 0.4 5 1.5 5 0.8 0 1.5 0.7 1.5 1.5 0 1.1 -1.2 1.5 -4.5 1.5 -3.3 0 -4.5 -0.4 -4.5 -1.5 0 -0.8 0.7 -1.5 1.5 -1.5 1.1 0 1.5 -1.2 1.5 -5 0 -4.3 -0.3 -5 -2 -5 -1.8 0 -2 0.7 -2 6.5 l0 6.5 -3.4 0 c-3.4 0 -3.5 -0.1 -4.1 -5.2z"/>
  <path d="M86 70.1 c0 -1.6 2.7 -2 12 -2 7.2 0 9 0.3 9 1.5 0 1.1 -2 1.4 -10.5 1.4 -5.8 0 -10.5 -0.4 -10.5 -0.9z"/>
  <path d="M79.7 66.3 c-0.4 -0.3 -0.7 -5.5 -0.7 -11.5 0 -8.9 0.3 -10.8 1.5 -10.8 1.2 0 1.5 1.9 1.5 11.5 0 10.5 -0.5 12.7 -2.3 10.8z"/>
  <path d="M97.7 55.8 c-2.3 -1.3 -2.4 -9.6 -0.1 -10.5 2.4 -0.9 6.6 0.9 7.5 3.3 1.5 4.3 -3.6 9.4 -7.4 7.2z"/>
 </g>
 <g fill="#3c6841">
  <path d="M91 80 l0 -8 7 0 7 0 0 8 0 8 -7 0 -7 0 0 -8z"/>
  <path d="M109 79.5 c0 -7.8 0.2 -8.5 2 -8.5 2.8 0 2.5 -1.5 -0.6 -2.8 -2 -1 -2.4 -1.7 -1.8 -3.5 0.4 -1.2 0.6 -3.7 0.5 -5.4 -0.1 -1.8 0.2 -3.3 0.6 -3.3 0.5 0 3.2 1.6 6 3.5 2.9 1.9 5.5 3.5 5.8 3.5 0.3 0 0.5 -1.1 0.5 -2.4 0 -1.3 0.7 -2.9 1.5 -3.6 1.3 -1.1 1.5 -0.1 1.5 8.4 0 7.9 -0.3 9.6 -1.5 9.6 -1.1 0 -1.5 1.2 -1.5 5 0 3.8 0.4 5 1.5 5 0.8 0 1.5 0.7 1.5 1.5 0 1.1 -1.2 1.5 -4.5 1.5 -3.3 0 -4.5 -0.4 -4.5 -1.5 0 -0.8 0.7 -1.5 1.5 -1.5 1.1 0 1.5 -1.2 1.5 -5 0 -4.3 -0.3 -5 -2 -5 -1.8 0 -2 0.7 -2 6.5 l0 6.5 -3 0 -3 0 0 -8.5z"/>
  <path d="M92 69.6 c0 -1.1 1.7 -1.5 7.5 -1.5 5.9 0 7.5 0.3 7.5 1.4 0 1.2 -1.6 1.5 -7.5 1.5 -5.8 0 -7.5 -0.3 -7.5 -1.4z"/>
  <path d="M80.7 66.3 c-1.1 -1.1 -0.8 -22.3 0.3 -22.3 0.6 0 1 4.5 1 11.5 0 6.3 -0.1 11.5 -0.3 11.5 -0.2 0 -0.7 -0.3 -1 -0.7z"/>
  <path d="M99 50.5 c0 -5.8 0.9 -6.7 4.4 -4.2 3.5 2.6 1.6 9.7 -2.5 9.7 -1.6 0 -1.9 -0.8 -1.9 -5.5z"/>
 </g>
 <g fill="#264229">
  <path d="M95 80 l0 -8 5 0 5 0 0 8 0 8 -5 0 -5 0 0 -8z"/>
  <path d="M116 86.5 c0 -0.8 0.7 -1.5 1.5 -1.5 1.1 0 1.5 -1.2 1.5 -5 0 -2.9 -0.5 -5 -1.1 -5 -2.6 0 -3.9 -3 -3.9 -8.9 0 -6.5 0.9 -7.4 4.6 -4.6 2.7 2 3.4 1.9 3.4 -0.9 0 -1.3 0.7 -2.9 1.5 -3.6 1.3 -1.1 1.5 -0.1 1.5 8.4 0 7.9 -0.3 9.6 -1.5 9.6 -1.1 0 -1.5 1.2 -1.5 5 0 3.8 0.4 5 1.5 5 0.8 0 1.5 0.7 1.5 1.5 0 1.1 -1.2 1.5 -4.5 1.5 -3.3 0 -4.5 -0.4 -4.5 -1.5z"/>
  <path d="M95.7 69.6 c-0.4 -1 0.8 -1.4 5.4 -1.5 4.6 -0.1 5.9 0.2 5.9 1.4 0 2 -10.5 2.2 -11.3 0.1z"/>
  <path d="M102.3 54.3 c-2 -0.7 -1.7 -8.3 0.2 -8.3 1.8 0 3.4 3.6 2.7 6.2 -0.5 2.2 -1.3 2.7 -2.9 2.1z"/>
 </g>
 <g fill="#111f13">
  <path d="M99 80 l0 -8 3 0 3 0 0 8 0 8 -3 0 -3 0 0 -8z"/>
  <path d="M118 87.2 c0 -0.4 0.5 -1.3 1.1 -1.9 0.7 -0.7 0.9 -3.1 0.5 -6.5 -1.9 -16.4 -2 -15.8 0.3 -15.8 1.5 0 2.1 -0.6 2.1 -2.4 0 -1.3 0.7 -2.9 1.5 -3.6 1.3 -1.1 1.5 -0.1 1.5 8.4 0 7.9 -0.3 9.6 -1.5 9.6 -1.1 0 -1.5 1.2 -1.5 5 0 3.8 0.4 5 1.5 5 0.8 0 1.5 0.7 1.5 1.5 0 1 -1.1 1.5 -3.5 1.5 -1.9 0 -3.5 -0.4 -3.5 -0.8z"/>
  <path d="M101.2 69.8 c0.7 -2 5.8 -2.3 5.8 -0.4 0 1.1 -1 1.6 -3.1 1.6 -2 0 -2.9 -0.4 -2.7 -1.2z"/>
  <path d="M81.4 55.5 c0 -6.6 0.1 -9.2 0.3 -5.7 0.2 3.4 0.2 8.8 0 12 -0.2 3.1 -0.3 0.3 -0.3 -6.3z"/>
  <path d="M102 49.6 c0 -3.4 1.8 -4.2 2.9 -1.4 1 2.7 0.6 3.8 -1.5 3.8 -0.8 0 -1.4 -1 -1.4 -2.4z"/>
 </g>
</svg>